<svg xmlns="http://www.w3.org/2000/svg" width="196" height="173" viewBox="0 0 196 173"><g><g clip-path="url(#clip-4675)" opacity=".08"><path d="M195.663 59.796c-.295.602-.909.94-1.599.926-1.218-.077-30.089-2.022-37.844-7.86a92.06 92.06 0 0 1-7.034-5.913l1.685 3.927a1.655 1.655 0 0 1-1.376 2.584c-.007.004-.014.004-.027 0h-.09l-14.837-.749a1.647 1.647 0 0 1-1.369-.858l-1.28-2.326.048.785a1.651 1.651 0 0 1-1.324 1.712c-.124.025-2.42.484-5.954.673 5.854 4.136 11.52 9.465 16.913 15.905 20.585 24.598 15.963 67.268 15.757 69.07a1.676 1.676 0 0 1-1.198 1.403 1.673 1.673 0 0 1-1.756-.571c-.858-1.088-21.058-26.89-21.964-37.788-.35-4.16-.38-8.147-.289-11.477l-2.655 5.691c-.24.522-.734.876-1.3.95a1.664 1.664 0 0 1-1.493-.604L116.06 82.188a1.644 1.644 0 0 1-.267-1.59l1.338-3.79-1.338 1.342a1.664 1.664 0 0 1-2.169.161c-.508-.375-11.886-8.953-17.122-22.268-6.467 6.912-58.785 65.154-60.31 138.822a1.658 1.658 0 0 1-.903 1.437c-.302.15-7.386 3.707-16.704 3.707-5.517 0-10.664-1.259-15.302-3.721a1.66 1.66 0 0 1-.84-1.813c.499-2.247 6.473-28.625 19.452-58.437l-.046-.058c.006-.007.06-.045.102-.075 7.803-17.91 18.162-37.014 31.356-52.895l-.014-.027.067-.033c8.812-10.594 18.879-19.77 30.343-26.131-.057.004-.108.004-.161.004-7.46 0-12.931-1.372-13.163-1.432a1.656 1.656 0 0 1-1.237-1.78l.208-1.885-2.115 3.422a1.645 1.645 0 0 1-1.41.789h-16.9a1.662 1.662 0 0 1-1.408-.78 1.643 1.643 0 0 1-.081-1.601l2.776-5.63c-2.545 2.162-5.676 4.641-9.136 6.985-9.083 6.15-41.901 6.7-43.296 6.72-.738.057-1.282-.384-1.55-.998a1.65 1.65 0 0 1 .349-1.81c1.257-1.275 31.173-31.207 63.028-31.207l.777.007c2.69.046 5.325.183 7.89.414l-8.15-3.97a1.658 1.658 0 0 1-.926-1.317 1.662 1.662 0 0 1 .633-1.474l3.62-2.805a91.342 91.342 0 0 1-9.017 1.783 12.79 12.79 0 0 1-1.742.113c-10.583 0-34.2-11.005-35.2-11.476a1.646 1.646 0 0 1-.948-1.575 1.655 1.655 0 0 1 1.103-1.477c.68-.237 16.824-5.843 35.19-5.843 10.705 0 19.946 1.933 27.48 5.743 20.964 10.614 27.364 22.99 29.039 27.302 6.131-2.865 16.264-5.873 31.238-5.362 28.35.983 53.751 29.1 54.819 30.296.446.505.545 1.223.25 1.821zm-141.847 53.78a258.503 258.503 0 0 1 11.859-21.62c-1.002-3.244-2.512-5.377-4.54-6.252-2.239-.966-4.646-.248-5.675.15-5.765 7.072-10.994 14.785-15.691 22.756 4.441-.356 10.101.558 14.047 4.967zm-26.865 19.886c4.205-1.395 10.544-1.95 17.213 2.956a227.627 227.627 0 0 1 7.97-19.291c-4.218-6.222-11.829-5.247-14.6-4.631-3.914 6.947-7.432 14.016-10.583 20.966zm-16.874 45.423c4.7-1.457 13.894-3.28 23.901.25.52-4.491 1.208-8.914 2.049-13.261-8.167-5.404-18.926-1.177-21.873.17a375.274 375.274 0 0 0-4.077 12.84zm26.684-16.695a197.435 197.435 0 0 1 6.17-22.284c-8.155-6.662-15.629-3.214-18.078-1.724a351.345 351.345 0 0 0-9.188 23.471c4.919-1.751 13.566-3.683 21.096.537zm-3.852 31.56c.103-3.711.349-7.375.69-11.004-11.466-4.385-22.175-.742-24.723.267-1.485 5.23-2.448 9.074-2.89 10.921 3.853 1.824 8.09 2.757 12.61 2.757 6.692 0 12.234-2.059 14.313-2.941zM91.501 56.64C79.21 62.083 68.387 71.001 58.932 81.74c1.145.024 2.368.224 3.598.752 2.326 1.002 4.15 2.938 5.475 5.723C77.685 72.963 86.807 61.958 91.5 56.64zm98.394.405c-7.487-7.358-27.944-25.346-49.435-26.095-15.705-.547-25.772 2.945-31.297 5.838a1.652 1.652 0 0 1-2.292-.824l-.089-.215a3.32 3.32 0 0 1-.137-.384c-.035-.14-3.994-14.635-27.84-26.706-7.058-3.572-15.798-5.387-25.98-5.387-12.41 0-24.002 2.723-29.94 4.39 7.224 3.156 22.411 9.372 29.8 9.372.457 0 .88-.017 1.272-.077 8.949-1.282 16.817-4.108 16.894-4.14a1.657 1.657 0 0 1 2.016.754 1.645 1.645 0 0 1-.432 2.107l-8.47 6.56 10.122 4.929 7.674-4.846a1.67 1.67 0 0 1 2.059.227c.547.545.643 1.4.231 2.052l-3.544 5.611c.508.486.66 1.24.357 1.888a1.658 1.658 0 0 1-1.865.92c-5.73-1.296-12.013-2.002-18.675-2.108l-.72-.008c-24.727 0-49.068 19.692-57.534 27.285 11.168-.428 31.177-1.993 37.146-6.032C47.738 46.388 54.372 39.57 54.437 39.5a1.67 1.67 0 0 1 2.148-.204c.668.466.896 1.35.534 2.078L51.584 52.61h13.3l5.474-8.868a1.673 1.673 0 0 1 1.951-.7 1.65 1.65 0 0 1 1.11 1.743l-.83 7.683a59.089 59.089 0 0 0 10.943 1.029c2.971 0 5.857-.235 8.573-.698.21-.037.417-.034.622.01.179-.117.385-.21.608-.258a43.785 43.785 0 0 0 3.476-.827 1.649 1.649 0 0 1 2.038 1.072c3.658 11.149 12.51 19.323 15.633 21.947l5.483-5.478a1.669 1.669 0 0 1 2.056-.23c.655.411.933 1.22.675 1.952l-3.479 9.825 8.362 10.31 5.288-11.346a1.674 1.674 0 0 1 1.51-.956 1.657 1.657 0 0 1 1.64 1.859c-.007.094-1.16 9.524-.302 19.757.597 7.166 11.951 23.659 18.632 32.59.614-11.445.665-43.203-15.325-62.308-6.584-7.87-13.577-13.999-20.773-18.23a1.646 1.646 0 0 1-.748-1.895c.227-.728.9-1.233 1.675-1.18a52.02 52.02 0 0 0 9.367-.403l-.374-6.612a1.66 1.66 0 0 1 3.109-.884l4.365 7.943 11.251.568-4.234-9.825a1.656 1.656 0 0 1 .638-2.052 1.663 1.663 0 0 1 2.134.317c.055.06 5.57 6.324 12.785 11.76 4.934 3.717 21.844 5.947 31.678 6.822z"/></g></g></svg>